<?xml version="1.0" encoding="UTF-8" standalone="no"?>
<svg
   xmlns:dc="http://purl.org/dc/elements/1.1/"
   xmlns:cc="http://creativecommons.org/ns#"
   xmlns:rdf="http://www.w3.org/1999/02/22-rdf-syntax-ns#"
   xmlns:svg="http://www.w3.org/2000/svg"
   xmlns="http://www.w3.org/2000/svg"
   xmlns:sodipodi="http://sodipodi.sourceforge.net/DTD/sodipodi-0.dtd"
   xmlns:inkscape="http://www.inkscape.org/namespaces/inkscape"
   width="100"
   height="111.44"
   viewBox="0 0 26.458333 29.485168"
   version="1.1"
   id="svg8"
   inkscape:version="0.92.5 (2060ec1f9f, 2020-04-08)"
   sodipodi:docname="isotipo.svg"
   inkscape:export-filename="/home/fidel/Escritorio/HerramientaD&amp;D/fei2020/Recursos/Manual de Marca/isotipo.png"
   inkscape:export-xdpi="96"
   inkscape:export-ydpi="96">
  <defs
     id="defs2" />
  <sodipodi:namedview
     id="base"
     pagecolor="#ffffff"
     bordercolor="#666666"
     borderopacity="1.0"
     inkscape:pageopacity="0.0"
     inkscape:pageshadow="2"
     inkscape:zoom="1.9930928"
     inkscape:cx="-43.217652"
     inkscape:cy="1.4313125"
     inkscape:document-units="mm"
     inkscape:current-layer="layer1"
     inkscape:document-rotation="0"
     showgrid="false"
     inkscape:window-width="1920"
     inkscape:window-height="998"
     inkscape:window-x="0"
     inkscape:window-y="0"
     inkscape:window-maximized="1"
     units="px" />
  <metadata
     id="metadata5">
    <rdf:RDF>
      <cc:Work
         rdf:about="">
        <dc:format>image/svg+xml</dc:format>
        <dc:type
           rdf:resource="http://purl.org/dc/dcmitype/StillImage" />
        <dc:title />
      </cc:Work>
    </rdf:RDF>
  </metadata>
  <g
     inkscape:label="Capa 1"
     inkscape:groupmode="layer"
     id="layer1"
     transform="translate(0,-267.51481)">
    <path
       id="path30"
       style="fill:#610000;fill-opacity:1;stroke:#000000;stroke-width:0.40291023;stroke-opacity:1"
       d="m 15.205159,267.7224 c -0.263417,-0.0648 -2.074846,1.69604 -7.092649,6.67713 -4.3509025,4.31908 -7.91105488,8.08128 -7.91105488,8.36041 0,0.7299 0.80850778,0.6488 6.98483538,-0.70117 6.5577145,-1.4333 8.0087415,-1.48902 9.5793545,-0.37065 3.461215,2.46462 3.025798,7.92687 -0.757811,9.50776 -3.153927,1.31778 -8.9297082,-0.11711 -12.2667384,-3.04701 -0.803223,-0.70525 -1.5447553,-1.14 -1.6478506,-0.96637 -0.4235237,0.71329 1.162561,4.29515 2.6504085,5.98542 1.7282546,1.96343 3.0491266,2.78798 5.4172525,3.38226 1.957421,0.4912 5.431564,0.2198 7.866984,-0.61461 2.601511,-0.89129 5.653925,-3.73147 7.028127,-6.54021 1.599212,-3.2687 1.599212,-7.37459 0,-10.64329 -1.980951,-4.04889 -6.428566,-7.16898 -10.219927,-7.16898 -0.736127,0 -1.338582,-0.11335 -1.338582,-0.25261 0,-0.13929 0.568542,-1.2724 1.263036,-2.51818 0.364058,-0.65306 0.564355,-1.0604 0.444615,-1.0899 z m -6.277382,8.63188 c 0.1341602,0.002 0.2186466,0.0962 0.2840808,0.26677 0.464581,1.21066 0.2695542,2.06195 -0.6759748,2.95023 -0.9555799,0.89771 -2.1068267,1.10887 -2.9903471,0.5477 -0.3506735,-0.22273 0.080559,-0.88665 1.4558248,-2.24119 1.0963781,-1.07987 1.6312201,-1.52713 1.9264163,-1.52351 z"
       inkscape:connector-curvature="0" />
  </g>
</svg>
