<?xml version="1.0" encoding="UTF-8" standalone="no"?>
<!-- Created with Inkscape (http://www.inkscape.org/) -->

<svg
   xmlns:dc="http://purl.org/dc/elements/1.1/"
   xmlns:cc="http://creativecommons.org/ns#"
   xmlns:rdf="http://www.w3.org/1999/02/22-rdf-syntax-ns#"
   xmlns:svg="http://www.w3.org/2000/svg"
   xmlns="http://www.w3.org/2000/svg"
   xmlns:sodipodi="http://sodipodi.sourceforge.net/DTD/sodipodi-0.dtd"
   xmlns:inkscape="http://www.inkscape.org/namespaces/inkscape"
   width="146.05mm"
   height="23.447237mm"
   viewBox="0 0 146.05 23.447237"
   version="1.1"
   id="svg838"
   inkscape:version="0.92.5 (2060ec1f9f, 2020-04-08)"
   sodipodi:docname="tipografia2.svg"
   inkscape:export-filename="/home/fidel/Escritorio/TDG/fei2020/Recursos/Manual de Marca/Tipografía/tipografia2.png"
   inkscape:export-xdpi="96"
   inkscape:export-ydpi="96">
  <defs
     id="defs832" />
  <sodipodi:namedview
     id="base"
     pagecolor="#ffffff"
     bordercolor="#666666"
     borderopacity="1.0"
     inkscape:pageopacity="0.0"
     inkscape:pageshadow="2"
     inkscape:zoom="1.4"
     inkscape:cx="134.66321"
     inkscape:cy="-68.355119"
     inkscape:document-units="mm"
     inkscape:current-layer="layer1"
     showgrid="false"
     fit-margin-top="0"
     fit-margin-left="0"
     fit-margin-right="0"
     fit-margin-bottom="0"
     inkscape:window-width="1920"
     inkscape:window-height="995"
     inkscape:window-x="0"
     inkscape:window-y="0"
     inkscape:window-maximized="1" />
  <metadata
     id="metadata835">
    <rdf:RDF>
      <cc:Work
         rdf:about="">
        <dc:format>image/svg+xml</dc:format>
        <dc:type
           rdf:resource="http://purl.org/dc/dcmitype/StillImage" />
        <dc:title></dc:title>
      </cc:Work>
    </rdf:RDF>
  </metadata>
  <g
     inkscape:label="Capa 1"
     inkscape:groupmode="layer"
     id="layer1">
    <g
       aria-label="Caveat Brush
"
       style="font-style:normal;font-variant:normal;font-weight:normal;font-stretch:normal;font-size:10.58333302px;line-height:1.25;font-family:'Caveat Brush';-inkscape-font-specification:'Caveat Brush';letter-spacing:0px;word-spacing:0px;fill:#000000;fill-opacity:1;stroke:none;stroke-width:0.26458332"
       id="text828"
       transform="matrix(3.0216678,0,0,3.0216678,-77.763818,-22.812064)">
      <path
         d="m 27.303489,8.237411 q 0.148167,-0.0635 0.613833,-0.042333 0.465667,0.010583 0.66675,0.084667 l 0.264584,0.084667 q 0.328083,0.22225 0.370416,0.22225 0.433917,0.3386666 0.497417,0.8889999 0.0635,0.2328334 0.02117,0.4233334 0,0.0635 -0.04233,0.2751667 l -0.105833,0.243417 -0.127,0.179916 q -0.0635,0.01058 -0.07408,0.01058 -0.391584,0.0635 -0.60325,0.02117 -0.211667,-0.05292 -0.370417,-0.232833 -0.03175,-0.0635 -0.03175,-0.116417 0.01058,-0.05292 0.03175,-0.09525 l 0.05292,-0.169333 q 0.137583,-0.3386667 -0.02117,-0.5715001 0,-0.03175 -0.105833,-0.1164166 -0.105834,-0.084667 -0.169334,-0.127 -0.05292,-0.042333 -0.201083,-0.010583 -0.254,0.1058334 -0.433917,0.6455834 -0.211666,0.2751663 -0.296333,0.7196663 -0.127,0.79375 -0.127,0.899583 l -0.01058,0.232834 v 0.09525 q -0.02117,0.02117 0.02117,0.92075 0.01058,0.05292 0.04233,0.148166 0.03175,0.116417 0.09525,0.381 l 0.137583,0.232833 q 0.05292,0.03175 0.137583,0.1905 0.05292,0 0.08467,0.07408 0.07408,0.07408 0.0635,0.08467 0.05292,0.01058 0.15875,0.0635 0.28575,0.148167 0.497417,-0.0635 0.07408,-0.07408 0.179916,-0.201083 0.116417,-0.137583 0.169334,-0.211667 0.0635,-0.08467 0.1905,-0.15875 0.34925,-0.264583 0.60325,0.02117 0.05292,0.08467 0.01058,0.41275 -0.03175,0.3175 -0.296333,0.66675 -0.02117,0.0635 -0.137584,0.211667 -0.116416,0.137583 -0.243416,0.22225 -0.02117,0.07408 -0.804334,0.105833 -0.04233,0 -0.169333,-0.02117 -0.116417,0.03175 -0.3175,-0.03175 -0.1905,-0.0635 -0.211667,-0.0635 l -0.137583,-0.03175 q -0.08467,0 -0.169333,-0.05292 -0.08467,-0.05292 -0.28575,-0.179917 -0.1905,-0.137583 -0.296334,-0.22225 -0.3175,-0.254 -0.455083,-0.582083 -0.04233,-0.07408 -0.05292,-0.201084 -0.01058,-0.137583 -0.04233,-0.201083 -0.08467,-0.08467 -0.08467,-0.275167 0.01058,-0.190499 -0.02117,-0.465666 0,-0.127 0.01058,-0.148167 -0.05292,-0.05292 -0.04233,-0.179916 0.01058,-0.137584 0.01058,-0.370417 0.03175,-0.0635 0.02117,-0.370417 0,-0.3175 0.02117,-0.47625 -0.04233,-0.09525 -0.01058,-0.275166 l 0.01058,-0.3175 q 0.01058,-0.1905 0.09525,-0.402167 0.01058,-0.09525 0.04233,-0.2222497 0.03175,-0.1375833 0.275166,-0.53975 0,-0.084667 0.15875,-0.2116666 0,-0.042333 0.08467,-0.127 0.08467,-0.084667 0.1905,-0.2116667 0.148167,-0.1799166 0.328083,-0.2645833 0.179917,-0.084667 0.338667,-0.2010833 z"
         style="stroke-width:0.26458332"
         id="path832"
         inkscape:connector-curvature="0" />
      <path
         d="m 32.531643,11.676994 q -0.01058,-0.232833 -0.105833,-0.34925 -0.09525,-0.127 -0.34925,-0.148166 -0.07408,0.05292 -0.201083,0.359833 -0.116417,0.296333 -0.148167,0.635 -0.105833,0.508 -0.105833,1.016 0.01058,0.518583 0.169333,0.762 0.02117,0.04233 0.04233,0.03175 0.05292,0 0.169333,-0.211667 0.560916,-1.016 0.529166,-2.0955 z m 0.328084,2.021417 -0.15875,0.41275 q 0,0.02117 -0.306917,0.455083 -0.09525,0.201083 -0.359833,0.22225 -0.254,0.02117 -0.497417,-0.05292 -0.328083,-0.116416 -0.497416,-0.275166 -0.169334,-0.15875 -0.338667,-0.529167 -0.15875,-0.381 -0.169333,-0.624417 -0.05292,-0.349249 -0.05292,-0.444499 v -0.254 q 0,-0.381 0.03175,-0.4445 0.01058,-0.04233 0.05292,-0.22225 0.05292,-0.4445 0.254,-0.846667 0.391583,-0.772583 0.804333,-0.79375 h 0.05292 q 0.02117,0.01058 0.0635,0.01058 h 0.137583 q 0.370416,0.03175 0.455083,0.0635 0.15875,0.04233 0.275167,0.04233 l 0.275166,0.05292 q 0.127,-0.01058 0.328084,0.05292 0.211666,0.0635 0.22225,0.09525 0.02117,0.03175 0.0635,0.232833 0.04233,0.201084 0.05292,0.296334 0.02117,0.08467 0.03175,0.179916 0.08467,0.772584 0.275167,1.439334 0.01058,0.03175 0.02117,0.09525 0.01058,0.0635 0.07408,0.253999 0.0635,0.179917 0.09525,0.306917 0.03175,0.127 0.116417,0.338667 0.0635,0.15875 0.1905,0.370416 0.232833,0.328084 -0.243417,0.508 -0.0635,0.02117 -0.22225,0.02117 -0.03175,0 -0.201083,-0.105833 -0.105834,0 -0.201084,-0.116417 l -0.08467,-0.02117 q -0.07408,-0.07408 -0.127,-0.07408 -0.02117,-0.02117 -0.381,-0.85725 -0.03175,0.116417 -0.03175,0.211667 z"
         style="stroke-width:0.26458332"
         id="path834"
         inkscape:connector-curvature="0" />
      <path
         d="m 36.500391,13.571411 0.137583,-0.79375 q 0,-0.0635 0.01058,-0.09525 0.02117,-0.04233 0.02117,-0.105833 0.01058,-0.08467 0.05292,-0.275167 0,-0.08467 0.04233,-0.137583 0.02117,-0.169334 0.264584,-0.66675 0.04233,-0.148167 0.137583,-0.254 0,-0.0635 0.0635,-0.148167 l 0.127,-0.22225 q 0,-0.02117 0.07408,-0.15875 0.0635,-0.03175 0.08467,-0.105833 0.02117,-0.08467 0.127,-0.232834 0.03175,-0.09525 0.243417,-0.179916 h 0.169333 l 0.232833,0.07408 0.15875,0.105833 q 0.05292,0.05292 0.07408,0.148167 0.02117,-0.02117 0.02117,0 -0.01058,0.09525 -0.127,0.47625 -0.105833,0.34925 -0.148166,0.497417 -0.04233,0.137583 -0.09525,0.28575 0,0.01058 -0.08467,0.306916 -0.08467,0.28575 -0.148167,0.391584 l -0.201083,0.740833 q -0.116417,0.275166 -0.148167,0.486833 -0.232833,1.037167 -0.232833,1.0795 0,0.04233 -0.08467,0.264583 -0.02117,0.169334 -0.370416,0.169334 -0.05292,-0.05292 -0.137584,-0.09525 -0.03175,0.04233 -0.28575,0.01058 -0.455083,0.05292 -0.772583,-0.127 -0.07408,-0.127 -0.127,-0.402167 -0.137583,-0.232833 -0.148167,-0.370416 l -0.105833,-0.1905 q 0,-0.137584 -0.05292,-0.254 -0.04233,-0.116417 -0.05292,-0.232834 -0.03175,-0.07408 -0.03175,-0.169333 -0.02117,-0.08467 -0.02117,-0.179917 -0.04233,-0.201083 -0.03175,-0.412749 0.01058,-0.22225 -0.02117,-0.529167 0,-0.179917 -0.01058,-0.22225 l 0.01058,-0.275167 q 0,-0.201083 0.01058,-0.243416 -0.04233,-0.169334 -0.04233,-0.296334 l -0.01058,-0.201083 q 0,-0.127 -0.02117,-0.243417 -0.02117,-0.116416 0.02117,-0.232833 0.07408,-0.08467 0.15875,-0.137583 0.127,-0.105834 0.381,-0.01058 l 0.264583,0.116417 0.09525,0.07408 q 0.02117,0.02117 -0.01058,0.105834 l 0.05292,0.508 q 0,0.243416 0.0635,0.624416 0.0635,0.370417 0.08467,0.624417 0.02117,0.243417 0.07408,0.687916 0.0635,0.433917 0.07408,0.53975 0,0.201084 0.04233,0.22225 0.09525,-0.15875 0.148167,-0.338666 z"
         style="stroke-width:0.26458332"
         id="path836"
         inkscape:connector-curvature="0" />
      <path
         d="m 41.082965,10.830328 q -0.02117,-0.05292 -0.148167,-0.04233 -0.116417,0.01058 -0.179917,0.127 -0.433916,0.687917 -0.465666,1.471084 0.359833,0.08467 0.613833,-0.3175 0.328083,-1.037167 0.179917,-1.23825 z m -0.8255,4.201583 -0.105834,-0.02117 -0.148166,-0.148167 q -0.0635,0 -0.09525,-0.05292 -0.116417,-0.137584 -0.423334,-0.550334 l -0.15875,-0.582083 q 0,-0.169333 -0.0635,-0.296333 -0.105833,-0.47625 -0.127,-0.53975 -0.02117,-0.07408 -0.03175,-0.391583 0,-0.3175 0.03175,-0.465667 0.03175,-0.201083 0.391584,-0.994833 0.09525,-0.09525 0.116416,-0.254 l 0.169334,-0.243417 q 0.232833,-0.275167 0.497416,-0.402167 0,-0.02117 0.359834,-0.1058331 0.07408,-0.010583 0.338666,0.052917 0.635,0.148166 0.79375,0.370416 l 0.03175,0.05292 q 0.201084,0.28575 0.232834,0.878417 -0.03175,0.264583 -0.05292,0.4445 -0.02117,0.179916 -0.232833,0.656166 -0.15875,0.296334 -0.306917,0.47625 -0.232833,0.169333 -0.3175,0.169333 -0.04233,0.02117 -0.179917,0.02117 h -0.243416 q -0.03175,-0.01058 -0.137584,-0.01058 -0.105833,0 -0.306916,-0.05292 0,0.232833 0.127,0.66675 0.137583,0.423333 0.22225,0.518583 0.22225,0.169334 0.34925,0.22225 0.127,0.05292 0.338666,0.02117 0.211667,-0.04233 0.306917,-0.148167 l 0.275167,-0.338666 q 0.264583,-0.359834 0.53975,-0.0635 0.127,0.137583 0.09525,0.275166 -0.02117,0.127 -0.211667,0.518584 -0.15875,0.254 -0.338667,0.423333 -0.328083,0.169333 -0.391583,0.169333 -0.09525,0.01058 -0.296333,-0.03175 -0.105834,0.05292 -0.359834,-0.01058 0,-0.02117 -0.0635,-0.03175 -0.05292,0 -0.148166,-0.03175 l 0.02117,-0.01058 q -0.02117,0 -0.127,0 l -0.296333,-0.15875 z"
         style="stroke-width:0.26458332"
         id="path838"
         inkscape:connector-curvature="0" />
      <path
         d="m 45.210459,11.613494 -0.05292,-0.09525 q -0.127,0 -0.47625,0.518584 -0.41275,0.560916 -0.582083,1.111249 -0.116417,0.328084 -0.137584,0.53975 0,0.306917 0.127,0.402167 0.05292,0 0.116417,-0.07408 0.07408,-0.07408 0.08467,-0.105834 0.07408,-0.04233 0.1905,-0.243416 0.137583,-0.201084 0.148166,-0.211667 l 0.09525,-0.201083 0.179917,-0.306917 q -0.02117,0 0.0635,-0.243416 0.127,-0.22225 0.137583,-0.338667 z m -2.233084,2.561167 q -0.03175,-0.455084 0.01058,-0.6985 0.243416,-0.889 0.381,-1.354667 0,-0.01058 0.07408,-0.264583 0.116417,-0.370417 0.211667,-0.486833 0,-0.03175 0.08467,-0.169334 0,-0.09525 0.232834,-0.328083 l 0.116416,-0.127 q 0.1905,-0.169333 0.53975,-0.169333 0.127,-0.02117 0.296334,0.01058 0.306916,0.137583 0.6985,0.41275 l 0.105833,0.0635 q 0.08467,0.02117 0.15875,0.05292 0.04233,0 0.179917,0.04233 l 0.137583,0.105833 q 0.09525,0.0635 0.116417,0.179917 -0.0635,0.0635 -0.0635,0.41275 -0.04233,0.455083 0.0635,1.068917 0.04233,0.571499 0.201083,1.206499 0,0.05292 0.07408,0.28575 0.08467,0.232834 0.07408,0.296334 0,0.264583 -0.497417,0.264583 -0.486833,-0.03175 -0.677333,-0.423333 -0.01058,-0.04233 -0.07408,-0.169334 -0.127,-0.127 -0.137583,-0.211666 l -0.02117,-0.148167 q -0.04233,-0.03175 -0.05292,-0.08467 -0.127,0.179917 -0.3175,0.370417 l -0.22225,0.34925 -0.08467,0.08467 q -0.01058,0.04233 -0.22225,0.09525 -0.211667,0.0635 -0.306917,0.02117 -0.05292,0 -0.148166,-0.02117 l -0.465667,-0.1905 q -0.15875,-0.04233 -0.232833,-0.148167 -0.137584,-0.08467 -0.137584,-0.09525 -0.105833,-0.179917 -0.09525,-0.232833 z"
         style="stroke-width:0.26458332"
         id="path840"
         inkscape:connector-curvature="0" />
      <path
         d="m 49.454359,8.3538276 q -0.02117,0.2645834 -0.02117,0.3915834 0,0.1164166 -0.01058,0.2116666 v 0.2751667 l -0.01058,0.074083 v 0.22225 q 0,0.09525 -0.01058,0.1905 l 0.370416,-0.074083 q 0.04233,0 0.306917,-0.052917 0.264583,-0.052917 0.47625,-0.042333 0.22225,0 0.296333,0.084667 0.08467,0.084667 0.08467,0.2434167 0.02117,0.127 -0.07408,0.243416 l -0.04233,0.0635 q -0.08467,0.137584 -0.243416,0.179917 l -0.370417,0.05292 -0.47625,0.116416 -0.28575,0.105834 q 0.01058,0.264583 0.03175,0.582083 0.03175,0.3175 0.03175,0.4445 l 0.03175,0.391583 q 0.137583,0.931334 0.359833,1.905 0.0635,0.09525 0.137584,0.433917 l 0.08467,0.22225 q 0.04233,0.359833 -0.4445,0.359833 -0.08467,0 -0.423333,-0.04233 -0.09525,-0.01058 -0.275167,-0.1905 0,-0.02117 -0.116416,-0.137584 L 48.660629,14.12175 q -0.02117,-0.03175 -0.05292,-0.201083 -0.116417,-0.116417 -0.1905,-0.529167 0,-0.02117 -0.02117,-0.105833 V 13.1375 q -0.07408,-0.07408 -0.105833,-0.41275 -0.03175,-0.338666 -0.07408,-0.635 0,-0.41275 -0.0635,-0.79375 l -0.02117,-0.232833 v -0.09525 q 0.01058,-0.105833 0,-0.105833 h -0.127 q -0.15875,0.02117 -0.264584,0 -0.465666,0 -0.645583,-0.264584 -0.127,-0.28575 -0.01058,-0.370416 0.116416,-0.08467 0.5715,-0.169334 0.201083,0 0.518583,-0.1375827 0,-0.2645833 0.03175,-0.2963333 0.03175,-0.2434167 0.0635,-0.3069167 0.04233,-0.074083 0.05292,-0.1481666 0.01058,-0.254 0.179916,-0.7514167 0.0635,-0.2434166 0.116417,-0.3280833 0.137583,-0.2010833 0.5715,-0.127 0.179917,0.03175 0.264583,0.1375833 0.03175,-0.010583 0,0.254 z"
         style="stroke-width:0.26458332"
         id="path842"
         inkscape:connector-curvature="0" />
      <path
         d="m 56.270018,10.332911 0.169333,-0.3598334 q 0.05292,-0.1481667 0.04233,-0.2328333 0,-0.084667 0,-0.1375834 0,-0.052917 -0.01058,-0.127 -0.01058,-0.084667 -0.07408,-0.15875 -0.05292,-0.084667 -0.116417,-0.1058333 -0.05292,-0.03175 -0.211666,-0.09525 l -0.232834,-0.010583 q -0.3175,-0.0635 -0.53975,0.052917 0,0.2328334 -0.116416,0.9736674 l -0.0635,0.73025 -0.05292,0.381 q 0.07408,0 0.381,-0.116417 l 0.148167,-0.127 q 0.04233,-0.01058 0.264583,-0.232833 0.05292,-0.02117 0.116417,-0.105834 l 0.105833,-0.127 q 0.03175,0.01058 0.116417,-0.105833 z m -1.227667,2.82575 0.02117,0.254 q 0.04233,0.09525 0,0.275166 -0.04233,0.179917 -0.01058,0.275167 0,0.179917 0.01058,0.211667 0.09525,0 0.28575,-0.08467 0.201083,-0.08467 0.254,-0.09525 0.05292,-0.01058 0.137583,-0.08467 0.264584,-0.137583 0.550334,-0.3175 l 0.243416,-0.22225 q 0.306917,-0.370416 0.423334,-0.539749 l 0.0635,-0.1905 q 0.137583,-0.296334 -0.264584,-0.560917 -0.08467,-0.127 -0.34925,-0.169333 h -0.01058 q -0.370417,-0.105834 -0.433917,-0.08467 l -0.465666,0.105833 q -0.127,0.0635 -0.232834,0.0635 -0.09525,0 -0.211666,-0.09525 l 0.01058,0.296334 q -0.07408,0.201083 -0.04233,0.391583 0.04233,0.1905 0.02117,0.5715 z m 0.465667,1.883833 h -0.09525 q -0.105833,0.02117 -0.41275,-0.03175 -0.53975,-0.08467 -0.867833,-0.338667 -0.09525,-0.08467 -0.22225,-0.22225 -0.116417,-0.148166 -0.116417,-0.201083 0,-0.05292 0,-0.137583 0.01058,-0.08467 -0.01058,-0.169334 v -0.08467 q -0.03175,-0.0635 0.01058,-0.22225 0.04233,-0.169334 0.02117,-0.275167 -0.02117,-0.137583 -0.03175,-0.296333 -0.03175,-0.04233 0.03175,-0.232833 0.08467,-1.42875 0.08467,-1.566334 l 0.05292,-0.3175 q -0.05292,-0.3175 0.02117,-0.550333 v -0.232833 q -0.01058,-0.148167 0.08467,-0.8572504 -0.04233,-0.127 -0.28575,-0.3280833 -0.05292,-0.052917 -0.105833,-0.15875 -0.05292,-0.1164167 0.04233,-0.3598333 0.0635,-0.084667 0.370417,-0.2751667 0.02117,-0.0635 0.5715,-0.2434166 l 0.201083,-0.084667 q 0.148167,-0.052917 0.592667,-0.042333 0.243417,0.03175 0.391583,0.09525 0.53975,0.2645833 0.994834,0.6032499 0.137583,0.0635 0.1905,0.1693334 0.1905,0.127 0.34925,0.41275 0.169333,0.2751666 0.1905,0.3492499 0.05292,0.3386667 -0.105834,0.8149171 -0.07408,0.243416 -0.6985,1.016 0.105834,0.03175 0.359834,0.179916 0.03175,0.04233 0.22225,0.148167 0.02117,0.03175 0.05292,0.07408 0.04233,0.04233 0.0635,0.07408 l 0.08467,0.05292 0.105833,0.15875 0.15875,0.137584 q 0.105834,0.105833 0.169334,0.232833 0.15875,0.148167 0.169333,0.243417 l 0.02117,0.201083 q -0.01058,0.116417 -0.3175,0.762 -0.116417,0.232833 -0.296334,0.359833 l -0.15875,0.1905 q -0.0635,0.08467 -0.243416,0.211667 -0.169334,0.127 -0.28575,0.243416 -0.05292,0.02117 -0.169334,0.09525 -0.105833,0.07408 -0.328083,0.179917 -0.211667,0.105833 -0.28575,0.127 -0.211667,0.0635 -0.5715,0.09525 z"
         style="stroke-width:0.26458332"
         id="path844"
         inkscape:connector-curvature="0" />
      <path
         d="m 58.725335,13.984161 q 0.201084,-1.375833 0.201084,-1.418167 l 0.05292,-0.296333 q 0.03175,-0.03175 0.03175,-0.47625 v -0.211667 l 0.02117,-0.22225 q -0.03175,-0.22225 -0.03175,-0.34925 -0.04233,-0.201083 0.04233,-0.402166 0.15875,-0.211667 0.53975,-0.127 0.137584,0.04233 0.243417,0.127 0.148167,0.05292 0.211667,0.105833 0.08467,0.03175 0.08467,0.391583 0.127,-0.127 0.560917,-0.28575 0.0635,0 0.264583,-0.04233 0.201084,-0.05292 0.338667,-0.05292 0.137583,0 0.211667,0.03175 0.211666,0.127 0.232833,0.169334 0.02117,0.03175 0.04233,0.105833 0.03175,0.07408 0.02117,0.07408 0.09525,0.09525 0.05292,0.211667 -0.09525,0.137583 -0.296334,0.15875 -0.1905,0 -0.719666,0.3175 l -0.3175,0.15875 q -0.41275,0.28575 -0.455084,0.3175 -0.179916,2.275416 -0.232833,2.518833 -0.03175,0.09525 -0.148167,0.1905 -0.116416,0.09525 -0.28575,-0.03175 l -0.148166,-0.05292 q -0.179917,-0.07408 -0.3175,-0.254 l -0.127,-0.169333 -0.0635,-0.179917 q 0,-0.0635 -0.01058,-0.127 z"
         style="stroke-width:0.26458332"
         id="path846"
         inkscape:connector-curvature="0" />
      <path
         d="m 65.668002,11.782828 0.01058,0.201083 q 0,0.03175 0.0635,0.66675 v 0.127 q 0,0.254 0.08467,0.762 0,0.22225 0.22225,0.772583 0.05292,0.03175 0.07408,0.148167 l -0.01058,0.105833 q 0.02117,0.05292 -0.05292,0.116417 0,0.07408 -0.201083,0.07408 -0.201083,0 -0.254,0.02117 -0.05292,0.02117 -0.169333,-0.02117 -0.04233,0.02117 -0.254,-0.08467 -0.09525,-0.02117 -0.148167,-0.1905 l -0.08467,-0.201083 q 0,-0.1905 -0.105833,-0.338667 0,-0.05292 -0.05292,-0.1905 -0.04233,-0.137583 -0.0635,-0.148166 -0.105834,0.423333 -0.264584,0.656166 0,0.05292 -0.0635,0.127 l -0.105833,0.201084 q 0,0.02117 -0.09525,0.116416 -0.0635,0.137584 -0.28575,0.137584 -0.201083,0 -0.486833,-0.105834 -0.07408,-0.01058 -0.296334,-0.09525 -0.0635,0.01058 -0.201083,-0.03175 -0.127,-0.05292 -0.148167,-0.05292 -0.03175,-0.03175 -0.148166,-0.105834 l -0.179917,-0.1905 q -0.01058,-0.01058 -0.04233,-0.09525 -0.02117,-0.09525 -0.01058,-0.127 0.01058,-0.04233 0,-0.116416 -0.01058,-0.07408 0.01058,-0.148167 0,-0.211667 0.04233,-0.465667 -0.01058,-0.03175 -0.01058,-0.07408 0,-0.04233 0.04233,-0.15875 -0.01058,-0.05292 -0.01058,-0.07408 l 0.05292,-0.41275 q 0,-0.148167 0.01058,-0.211667 v -0.15875 q 0.01058,-0.04233 0.01058,-0.116416 l 0.05292,-0.508 q 0,-0.116417 0.01058,-0.148167 v -0.105833 q 0.02117,-0.02117 0.02117,-0.169334 l 0.09525,-0.296333 0.07408,-0.127 q 0.01058,-0.04233 0.116417,-0.09525 0.169333,-0.105833 0.486833,-0.105833 0.127,0.02117 0.275167,0.105833 0.03175,-0.01058 0.148166,0.04233 0.211667,0.09525 0.02117,0.53975 -0.04233,0.28575 -0.04233,0.296334 -0.04233,0.08467 -0.04233,0.137583 -0.0635,0.338667 -0.0635,0.359833 0.04233,-0.04233 -0.03175,0.127 l -0.04233,0.391584 q -0.07408,0.254 -0.0635,0.560916 l -0.04233,0.137583 q 0.01058,0.05292 -0.01058,0.328084 0.02117,0.03175 0.02117,0.07408 l 0.01058,0.08467 q -0.01058,0.03175 0.01058,0.0635 0.02117,0.02117 0.116416,0.02117 0.105834,-0.01058 0.179917,-0.05292 0.148167,-0.179917 0.201083,-0.370417 0.05292,-0.201083 0.05292,-0.232833 0.179917,-0.455083 0.22225,-0.529167 0.05292,-0.28575 0.179917,-0.656166 -0.02117,-0.05292 0,-0.211667 l 0.137583,-0.560917 q 0.09525,-0.15875 0.09525,-0.1905 0,-0.04233 0.127,-0.296333 0,-0.04233 0.0635,-0.169333 0.07408,-0.116417 0.264583,-0.22225 h 0.03175 q 0.232833,-0.02117 0.402167,0.0635 0.02117,0.04233 0.02117,0.148166 0.02117,0.105834 0.04233,0.381 v 0.105834 l -0.04233,0.232833 q 0.08467,0.264583 0.02117,0.529167 z"
         style="stroke-width:0.26458332"
         id="path848"
         inkscape:connector-curvature="0" />
      <path
         d="m 67.266075,10.608078 q 0.28575,-0.34925 0.783166,-0.370417 0.814917,-0.03175 1.2065,0.402167 0.402167,0.433916 0.423334,0.85725 0.03175,0.423333 -0.211667,0.455083 -0.34925,0.01058 -0.455083,-0.09525 -0.09525,0.01058 -0.243417,-0.137583 -0.0635,-0.03175 -0.169333,-0.243417 l -0.116417,-0.264583 q -0.08467,-0.1905 -0.211667,-0.211667 -0.15875,0.0635 -0.15875,0.3175 0.04233,0.497417 0.47625,0.9525 0,0 0.01058,0.03175 0.02117,0.02117 0.15875,0.169333 0.836083,0.92075 0.867833,1.481667 0,0.359833 -0.148167,0.47625 -0.455083,0.53975 -1.185333,0.560916 -0.73025,0.02117 -1.2065,-0.455083 -0.127,-0.127 -0.127,-0.243417 -0.0635,-0.201083 -0.04233,-0.264583 -0.03175,-0.296333 0,-0.4445 0.0635,-0.338667 0.497416,-0.34925 0.15875,0 0.201084,0.1905 0.137583,0.53975 0.254,0.709083 0.127,0.169334 0.402166,0.15875 0.34925,-0.02117 0.328084,-0.391583 -0.01058,-0.370417 -0.34925,-0.687917 -0.105834,-0.127 -0.211667,-0.1905 -0.09525,-0.07408 -0.127,-0.105833 -0.01058,-0.03175 -0.05292,-0.0635 -0.211666,-0.169333 -0.53975,-0.560916 -0.3175,-0.391584 -0.338666,-0.73025 -0.04233,-0.60325 0.28575,-0.9525 z"
         style="stroke-width:0.26458332"
         id="path850"
         inkscape:connector-curvature="0" />
      <path
         d="m 70.663307,8.4173276 0.02117,-0.1375833 q 0,-0.03175 0.02117,-0.09525 0.04233,-0.010583 0.04233,-0.074083 0,-0.0635 0.02117,-0.1164167 -0.01058,-0.0635 0.08467,-0.2010833 0.09525,-0.1481667 0.1905,-0.22225 0.0635,0 0.08467,-0.021167 h 0.127 q 0.296333,0 0.34925,0.042333 0.116417,0.052917 0.116417,0.381 0.01058,0.03175 0.01058,0.1587499 l -0.01058,0.074083 v 0.084667 q 0,0.052917 0,0.1164167 0.01058,0.0635 0,0.127 v 0.28575 q -0.02117,0.6773333 -0.02117,0.8995833 0,0.2116667 -0.01058,0.2328333 0.01058,0.052917 0.01058,0.7620005 0.03175,0.529167 0.03175,1.005417 v 0.243416 q 0,0.243417 -0.01058,0.338667 l 0.01058,0.09525 q -0.02117,0.02117 -0.02117,0.127 v 0.148167 l 0.116417,-0.306917 q 0,-0.08467 0.09525,-0.243417 l 0.04233,-0.15875 q 0,-0.04233 0.08467,-0.22225 0.09525,-0.179916 0.137583,-0.34925 l 0.07408,-0.127 q 0,-0.105833 0.04233,-0.148166 l 0.01058,-0.0635 q 0.08467,-0.148167 0.08467,-0.1905 l 0.01058,-0.15875 q 0,-0.02117 0.02117,-0.05292 0.07408,-0.08467 0.105833,-0.211667 0.264584,-0.34925 0.719667,-0.28575 0.550333,0.07408 0.550333,0.6985 v 0.3175 q 0.03175,0.15875 -0.01058,0.243417 l 0.01058,0.179917 v 0.201083 l 0.03175,0.60325 v 0.22225 q 0,0.07408 -0.01058,0.127 0.01058,0.03175 0.01058,0.137583 -0.02117,0.01058 0,0.09525 0.02117,0.07408 0.02117,0.116417 0,0.03175 0.02117,0.296333 0,0.624417 0.137583,1.164167 l 0.01058,0.07408 v 0.0635 q 0.09525,0.264583 -0.03175,0.34925 -0.116416,0.07408 -0.211666,-0.02117 -0.03175,0.01058 -0.243417,-0.01058 -0.116417,0.0635 -0.41275,-0.169333 -0.0635,-0.04233 -0.116417,-0.105834 -0.01058,-0.02117 -0.03175,-0.08467 -0.04233,-0.148167 -0.05292,-0.232834 -0.09525,-0.169333 -0.09525,-0.211666 l -0.0635,-0.508 q 0.04233,-0.01058 -0.02117,-0.264584 -0.0635,-0.254 -0.08467,-0.687916 v -0.09525 q 0,-0.201083 0.01058,-0.201083 -0.07408,0 -0.179917,0.529166 l -0.07408,0.34925 v 0.105833 q -0.04233,0.08467 -0.09525,0.127 l -0.328084,1.354667 q 0.02117,0.08467 -0.02117,0.116417 -0.04233,0.04233 -0.15875,0.05292 h -0.275167 q -0.04233,0.04233 -0.127,0.04233 -0.264583,0 -0.296333,-0.179917 -0.116417,-0.03175 -0.116417,-0.127 v -0.0635 q -0.127,-0.254 -0.137583,-0.328083 0,-0.07408 0,-0.137584 -0.02117,-0.04233 -0.02117,-0.116416 -0.02117,-0.02117 -0.02117,-0.116417 -0.05292,-0.137583 -0.03175,-0.4445 l -0.01058,-0.127 q 0.01058,-0.148167 0.01058,-0.22225 v -0.1905 l 0.01058,-0.09525 v -0.116416 q 0,-0.04233 -0.02117,-0.148167 0.03175,-0.05292 0.01058,-0.127 v -0.264583 q 0,-0.201084 -0.01058,-0.243417 v -0.3175 q -0.01058,-0.148167 0,-0.201083 l -0.04233,-0.381 q 0.02117,-0.201084 -0.02117,-0.391584 0.01058,-0.04233 -0.04233,-0.465666 -0.04233,-0.4233341 -0.02117,-0.4974175 0,-0.074083 -0.02117,-0.15875 -0.01058,-0.084667 0.02117,-0.127 0,-0.010583 -0.02117,-0.1375833 -0.02117,-0.1164167 0,-0.254 -0.02117,-0.052917 0,-0.1693333 0.03175,-0.03175 0.01058,-0.127 V 8.6713276 l 0.04233,-0.1058333 q -0.02117,-0.0635 -0.02117,-0.1481667 z"
         style="stroke-width:0.26458332"
         id="path852"
         inkscape:connector-curvature="0" />
    </g>
  </g>
</svg>
